<svg width="15" height="16" viewBox="0 0 15 16" fill="none" xmlns="http://www.w3.org/2000/svg">
<path d="M6.875 0.5V4.25H0V3.625C0 2.7962 0.32924 2.00134 0.915291 1.41529C1.50134 0.82924 2.2962 0.5 3.125 0.5H6.875ZM8.125 0.5V10.5H15V3.625C15 2.7962 14.6708 2.00134 14.0847 1.41529C13.4987 0.82924 12.7038 0.5 11.875 0.5H8.125ZM15 11.75H8.125V15.5H11.875C12.7038 15.5 13.4987 15.1708 14.0847 14.5847C14.6708 13.9987 15 13.2038 15 12.375V11.75ZM6.875 15.5V5.5H0V12.375C0 13.2038 0.32924 13.9987 0.915291 14.5847C1.50134 15.1708 2.2962 15.5 3.125 15.5H6.875Z" fill="#A1A9A3"/>
</svg>
