<svg width="16" height="18" viewBox="0 0 16 18" fill="none" xmlns="http://www.w3.org/2000/svg">
<path fill-rule="evenodd" clip-rule="evenodd" d="M1.47667 1.76964C0.5 2.74547 0.5 4.31714 0.5 7.45964V10.793C0.5 13.9355 0.5 15.5071 1.47667 16.483C2.45333 17.4588 4.02417 17.4596 7.16667 17.4596H8.83333C11.9758 17.4596 13.5475 17.4596 14.5233 16.483C15.4992 15.5063 15.5 13.9355 15.5 10.793V7.45964C15.5 4.31714 15.5 2.74547 14.5233 1.76964C13.5467 0.793802 11.9758 0.792969 8.83333 0.792969H7.16667C4.02417 0.792969 2.4525 0.792969 1.47667 1.76964ZM4.04167 5.79297C4.04167 5.62721 4.10751 5.46824 4.22472 5.35103C4.34193 5.23382 4.50091 5.16797 4.66667 5.16797H11.3333C11.4991 5.16797 11.6581 5.23382 11.7753 5.35103C11.8925 5.46824 11.9583 5.62721 11.9583 5.79297C11.9583 5.95873 11.8925 6.1177 11.7753 6.23491C11.6581 6.35212 11.4991 6.41797 11.3333 6.41797H4.66667C4.50091 6.41797 4.34193 6.35212 4.22472 6.23491C4.10751 6.1177 4.04167 5.95873 4.04167 5.79297ZM4.04167 9.1263C4.04167 8.96054 4.10751 8.80157 4.22472 8.68436C4.34193 8.56715 4.50091 8.5013 4.66667 8.5013H11.3333C11.4991 8.5013 11.6581 8.56715 11.7753 8.68436C11.8925 8.80157 11.9583 8.96054 11.9583 9.1263C11.9583 9.29206 11.8925 9.45103 11.7753 9.56824C11.6581 9.68545 11.4991 9.7513 11.3333 9.7513H4.66667C4.50091 9.7513 4.34193 9.68545 4.22472 9.56824C4.10751 9.45103 4.04167 9.29206 4.04167 9.1263ZM4.66667 11.8346C4.50091 11.8346 4.34193 11.9005 4.22472 12.0177C4.10751 12.1349 4.04167 12.2939 4.04167 12.4596C4.04167 12.6254 4.10751 12.7844 4.22472 12.9016C4.34193 13.0188 4.50091 13.0846 4.66667 13.0846H8.83333C8.99909 13.0846 9.15806 13.0188 9.27527 12.9016C9.39248 12.7844 9.45833 12.6254 9.45833 12.4596C9.45833 12.2939 9.39248 12.1349 9.27527 12.0177C9.15806 11.9005 8.99909 11.8346 8.83333 11.8346H4.66667Z" fill="#9D9D9D"/>
</svg>
