<svg width="15" height="18" viewBox="0 0 15 18" fill="none" xmlns="http://www.w3.org/2000/svg">
<path d="M5 13.9998C4.54167 13.9998 4.14944 13.8368 3.82333 13.5107C3.49722 13.1846 3.33389 12.7921 3.33333 12.3332V2.33317C3.33333 1.87484 3.49667 1.48262 3.82333 1.1565C4.15 0.830393 4.54222 0.667059 5 0.666504H12.5C12.9583 0.666504 13.3508 0.829837 13.6775 1.1565C14.0042 1.48317 14.1672 1.87539 14.1667 2.33317V12.3332C14.1667 12.7915 14.0036 13.184 13.6775 13.5107C13.3514 13.8373 12.9589 14.0004 12.5 13.9998H5ZM1.66667 17.3332C1.20833 17.3332 0.816111 17.1701 0.49 16.844C0.163889 16.5179 0.000555556 16.1254 0 15.6665V3.99984H1.66667V15.6665H10.8333V17.3332H1.66667Z" fill="#9388FE"/>
</svg>
