<svg width="19" height="20" viewBox="0 0 19 20" fill="none" xmlns="http://www.w3.org/2000/svg">
<path d="M9.49977 0.916016C4.48289 0.916016 0.416016 4.98289 0.416016 9.99977C0.416016 15.0166 4.48289 19.0835 9.49977 19.0835C14.5166 19.0835 18.5835 15.0166 18.5835 9.99977C18.5835 4.98289 14.5166 0.916016 9.49977 0.916016ZM10.3298 15.2316H8.63727V13.6098H10.3298V15.2316ZM10.3298 11.8773V12.4135H8.63727V11.7535C8.63727 9.75976 10.906 9.44351 10.906 8.02664C10.906 7.38102 10.3291 6.88601 9.57289 6.88601C8.78914 6.88601 8.10164 7.46352 8.10164 7.46352L7.13914 6.26602C7.13914 6.26602 8.08727 5.27477 9.72351 5.27477C11.2773 5.27477 12.7204 6.23727 12.7204 7.85977C12.7204 10.1298 10.3285 10.391 10.3285 11.8766L10.3298 11.8773Z" fill="#9388FE"/>
</svg>
