<svg width="20" height="19" viewBox="0 0 20 19" fill="none" xmlns="http://www.w3.org/2000/svg">
<path d="M9.99977 0.0429688C4.98289 0.0429688 0.916016 4.10984 0.916016 9.12672C0.916016 14.1436 4.98289 18.2105 9.99977 18.2105C15.0166 18.2105 19.0835 14.1436 19.0835 9.12672C19.0835 4.10984 15.0166 0.0429688 9.99977 0.0429688ZM10.8298 14.3586H9.13727V12.7367H10.8298V14.3586ZM10.8298 11.0042V11.5405H9.13727V10.8805C9.13727 8.88672 11.406 8.57047 11.406 7.15359C11.406 6.50797 10.8291 6.01297 10.0729 6.01297C9.28914 6.01297 8.60164 6.59047 8.60164 6.59047L7.63914 5.39297C7.63914 5.39297 8.58727 4.40172 10.2235 4.40172C11.7773 4.40172 13.2204 5.36422 13.2204 6.98672C13.2204 9.25672 10.8285 9.51797 10.8285 11.0036L10.8298 11.0042Z" fill="#9D9D9D"/>
</svg>
