<svg width="16" height="16" viewBox="0 0 16 16" fill="none" xmlns="http://www.w3.org/2000/svg">
<path d="M1.75 15.627C1.75 15.627 0.5 15.627 0.5 14.377C0.5 13.127 1.75 9.37695 8 9.37695C14.25 9.37695 15.5 13.127 15.5 14.377C15.5 15.627 14.25 15.627 14.25 15.627H1.75ZM8 8.12695C8.99456 8.12695 9.94839 7.73186 10.6517 7.0286C11.3549 6.32534 11.75 5.37151 11.75 4.37695C11.75 3.38239 11.3549 2.42856 10.6517 1.7253C9.94839 1.02204 8.99456 0.626953 8 0.626953C7.00544 0.626953 6.05161 1.02204 5.34835 1.7253C4.64509 2.42856 4.25 3.38239 4.25 4.37695C4.25 5.37151 4.64509 6.32534 5.34835 7.0286C6.05161 7.73186 7.00544 8.12695 8 8.12695Z" fill="#F0BB30"/>
</svg>
