<svg width="15" height="16" viewBox="0 0 15 16" fill="none" xmlns="http://www.w3.org/2000/svg">
<path d="M1.25 15.5C1.25 15.5 0 15.5 0 14.25C0 13 1.25 9.25 7.5 9.25C13.75 9.25 15 13 15 14.25C15 15.5 13.75 15.5 13.75 15.5H1.25ZM7.5 8C8.49456 8 9.44839 7.60491 10.1517 6.90165C10.8549 6.19839 11.25 5.24456 11.25 4.25C11.25 3.25544 10.8549 2.30161 10.1517 1.59835C9.44839 0.895088 8.49456 0.5 7.5 0.5C6.50544 0.5 5.55161 0.895088 4.84835 1.59835C4.14509 2.30161 3.75 3.25544 3.75 4.25C3.75 5.24456 4.14509 6.19839 4.84835 6.90165C5.55161 7.60491 6.50544 8 7.5 8Z" fill="#9388FE"/>
</svg>
