<svg width="15" height="14" viewBox="0 0 15 14" fill="none" xmlns="http://www.w3.org/2000/svg">
<path fill-rule="evenodd" clip-rule="evenodd" d="M0 5.33333C0 3.46667 9.93411e-08 2.53333 0.363333 1.82C0.682906 1.19282 1.19282 0.682906 1.82 0.363333C2.53333 -9.93411e-08 3.46667 0 5.33333 0H9.66667C11.5333 0 12.4667 -9.93411e-08 13.18 0.363333C13.8072 0.682906 14.3171 1.19282 14.6367 1.82C15 2.53333 15 3.46667 15 5.33333V6.33333C15 8.2 15 9.13333 14.6367 9.84667C14.3171 10.4738 13.8072 10.9838 13.18 11.3033C12.4667 11.6667 11.5333 11.6667 9.66667 11.6667H3.67833C3.45734 11.6667 3.24541 11.7545 3.08917 11.9108L1.4225 13.5775C0.8975 14.1025 0 13.7308 0 12.9883V5.33333ZM5 3.33333C4.77899 3.33333 4.56702 3.42113 4.41074 3.57741C4.25446 3.73369 4.16667 3.94565 4.16667 4.16667C4.16667 4.38768 4.25446 4.59964 4.41074 4.75592C4.56702 4.9122 4.77899 5 5 5H10C10.221 5 10.433 4.9122 10.5893 4.75592C10.7455 4.59964 10.8333 4.38768 10.8333 4.16667C10.8333 3.94565 10.7455 3.73369 10.5893 3.57741C10.433 3.42113 10.221 3.33333 10 3.33333H5ZM5 6.66667C4.77899 6.66667 4.56702 6.75446 4.41074 6.91074C4.25446 7.06702 4.16667 7.27899 4.16667 7.5C4.16667 7.72101 4.25446 7.93297 4.41074 8.08926C4.56702 8.24554 4.77899 8.33333 5 8.33333H7.5C7.72101 8.33333 7.93297 8.24554 8.08926 8.08926C8.24554 7.93297 8.33333 7.72101 8.33333 7.5C8.33333 7.27899 8.24554 7.06702 8.08926 6.91074C7.93297 6.75446 7.72101 6.66667 7.5 6.66667H5Z" fill="#9388FE"/>
</svg>
