<svg width="21" height="14" viewBox="0 0 21 14" fill="none" xmlns="http://www.w3.org/2000/svg">
<path fill-rule="evenodd" clip-rule="evenodd" d="M0.5 3C0.5 2.20435 0.816071 1.44129 1.37868 0.87868C1.94129 0.316071 2.70435 0 3.5 0H17.5C18.2956 0 19.0587 0.316071 19.6213 0.87868C20.1839 1.44129 20.5 2.20435 20.5 3V11C20.5 11.7956 20.1839 12.5587 19.6213 13.1213C19.0587 13.6839 18.2956 14 17.5 14H3.5C2.70435 14 1.94129 13.6839 1.37868 13.1213C0.816071 12.5587 0.5 11.7956 0.5 11V3ZM9.5 7C9.5 6.73478 9.60536 6.48043 9.79289 6.29289C9.98043 6.10536 10.2348 6 10.5 6C10.7652 6 11.0196 6.10536 11.2071 6.29289C11.3946 6.48043 11.5 6.73478 11.5 7C11.5 7.26522 11.3946 7.51957 11.2071 7.70711C11.0196 7.89464 10.7652 8 10.5 8C10.2348 8 9.98043 7.89464 9.79289 7.70711C9.60536 7.51957 9.5 7.26522 9.5 7ZM10.5 4C9.70435 4 8.94129 4.31607 8.37868 4.87868C7.81607 5.44129 7.5 6.20435 7.5 7C7.5 7.79565 7.81607 8.55871 8.37868 9.12132C8.94129 9.68393 9.70435 10 10.5 10C11.2956 10 12.0587 9.68393 12.6213 9.12132C13.1839 8.55871 13.5 7.79565 13.5 7C13.5 6.20435 13.1839 5.44129 12.6213 4.87868C12.0587 4.31607 11.2956 4 10.5 4Z" fill="#A1A9A3"/>
</svg>
