<svg width="20" height="21" viewBox="0 0 20 21" fill="none" xmlns="http://www.w3.org/2000/svg">
<path d="M15.834 14.2936H10.0007C9.08148 14.2936 8.33398 15.0411 8.33398 15.9603C8.33398 16.8795 9.08148 17.627 10.0007 17.627H15.834C16.7532 17.627 17.5007 16.8795 17.5007 15.9603C17.5007 15.0411 16.7532 14.2936 15.834 14.2936ZM15.834 8.46029H10.0007C9.08148 8.46029 8.33398 9.20779 8.33398 10.127C8.33398 11.0461 9.08148 11.7936 10.0007 11.7936H15.834C16.7532 11.7936 17.5007 11.0461 17.5007 10.127C17.5007 9.20779 16.7532 8.46029 15.834 8.46029ZM15.834 2.62695H10.0007C9.08148 2.62695 8.33398 3.37445 8.33398 4.29362C8.33398 5.21279 9.08148 5.96029 10.0007 5.96029H15.834C16.7532 5.96029 17.5007 5.21279 17.5007 4.29362C17.5007 3.37445 16.7532 2.62695 15.834 2.62695Z" fill="#9D9D9D"/>
<path d="M4.16732 18.0436C5.31791 18.0436 6.25065 17.1109 6.25065 15.9603C6.25065 14.8097 5.31791 13.877 4.16732 13.877C3.01672 13.877 2.08398 14.8097 2.08398 15.9603C2.08398 17.1109 3.01672 18.0436 4.16732 18.0436Z" fill="#9D9D9D"/>
<path d="M4.16732 12.2096C5.31791 12.2096 6.25065 11.2769 6.25065 10.1263C6.25065 8.97571 5.31791 8.04297 4.16732 8.04297C3.01672 8.04297 2.08398 8.97571 2.08398 10.1263C2.08398 11.2769 3.01672 12.2096 4.16732 12.2096Z" fill="#9D9D9D"/>
<path d="M4.16732 6.3776C5.31791 6.3776 6.25065 5.44486 6.25065 4.29427C6.25065 3.14368 5.31791 2.21094 4.16732 2.21094C3.01672 2.21094 2.08398 3.14368 2.08398 4.29427C2.08398 5.44486 3.01672 6.3776 4.16732 6.3776Z" fill="#9D9D9D"/>
</svg>
