<svg width="20" height="21" viewBox="0 0 20 21" fill="none" xmlns="http://www.w3.org/2000/svg">
<path d="M15.834 14.2917H10.0007C9.08148 14.2917 8.33398 15.0392 8.33398 15.9583C8.33398 16.8775 9.08148 17.625 10.0007 17.625H15.834C16.7532 17.625 17.5007 16.8775 17.5007 15.9583C17.5007 15.0392 16.7532 14.2917 15.834 14.2917ZM15.834 8.45833H10.0007C9.08148 8.45833 8.33398 9.20583 8.33398 10.125C8.33398 11.0442 9.08148 11.7917 10.0007 11.7917H15.834C16.7532 11.7917 17.5007 11.0442 17.5007 10.125C17.5007 9.20583 16.7532 8.45833 15.834 8.45833ZM15.834 2.625H10.0007C9.08148 2.625 8.33398 3.3725 8.33398 4.29167C8.33398 5.21083 9.08148 5.95833 10.0007 5.95833H15.834C16.7532 5.95833 17.5007 5.21083 17.5007 4.29167C17.5007 3.3725 16.7532 2.625 15.834 2.625Z" fill="#F0BB30"/>
<path d="M4.16732 18.0417C5.31791 18.0417 6.25065 17.1089 6.25065 15.9583C6.25065 14.8077 5.31791 13.875 4.16732 13.875C3.01672 13.875 2.08398 14.8077 2.08398 15.9583C2.08398 17.1089 3.01672 18.0417 4.16732 18.0417Z" fill="#F0BB30"/>
<path d="M4.16732 12.2096C5.31791 12.2096 6.25065 11.2769 6.25065 10.1263C6.25065 8.97571 5.31791 8.04297 4.16732 8.04297C3.01672 8.04297 2.08398 8.97571 2.08398 10.1263C2.08398 11.2769 3.01672 12.2096 4.16732 12.2096Z" fill="#F0BB30"/>
<path d="M4.16732 6.3737C5.31791 6.3737 6.25065 5.44096 6.25065 4.29036C6.25065 3.13977 5.31791 2.20703 4.16732 2.20703C3.01672 2.20703 2.08398 3.13977 2.08398 4.29036C2.08398 5.44096 3.01672 6.3737 4.16732 6.3737Z" fill="#F0BB30"/>
</svg>
