<svg width="14" height="18" viewBox="0 0 14 18" fill="none" xmlns="http://www.w3.org/2000/svg">
<path d="M2.00065 17.4596C1.54232 17.4596 1.1501 17.2966 0.823984 16.9705C0.497873 16.6444 0.33454 16.2519 0.333984 15.793V5.79297C0.333984 5.33464 0.497318 4.94241 0.823984 4.6163C1.15065 4.29019 1.54287 4.12686 2.00065 4.1263H3.66732C3.66732 3.20964 3.99371 2.42491 4.64648 1.77214C5.29926 1.11936 6.08398 0.792969 7.00065 0.792969C7.91732 0.792969 8.70204 1.11936 9.35482 1.77214C10.0076 2.42491 10.334 3.20964 10.334 4.1263H12.0007C12.459 4.1263 12.8515 4.28964 13.1782 4.6163C13.5048 4.94297 13.6679 5.33519 13.6673 5.79297V15.793C13.6673 16.2513 13.5043 16.6438 13.1782 16.9705C12.852 17.2971 12.4595 17.4602 12.0007 17.4596H2.00065ZM5.33398 4.1263H8.66732C8.66732 3.66797 8.50426 3.27575 8.17815 2.94964C7.85204 2.62352 7.45954 2.46019 7.00065 2.45964C6.54176 2.45908 6.14954 2.62241 5.82398 2.94964C5.49843 3.27686 5.3351 3.66908 5.33398 4.1263ZM9.50065 8.29297C9.73676 8.29297 9.93482 8.21297 10.0948 8.05297C10.2548 7.89297 10.3345 7.69519 10.334 7.45964V5.79297H8.66732V7.45964C8.66732 7.69575 8.74732 7.8938 8.90732 8.0538C9.06732 8.2138 9.2651 8.29352 9.50065 8.29297ZM4.50065 8.29297C4.73676 8.29297 4.93482 8.21297 5.09482 8.05297C5.25482 7.89297 5.33454 7.69519 5.33398 7.45964V5.79297H3.66732V7.45964C3.66732 7.69575 3.74732 7.8938 3.90732 8.0538C4.06732 8.2138 4.2651 8.29352 4.50065 8.29297Z" fill="#9D9D9D"/>
</svg>
