<svg width="26" height="26" viewBox="0 0 26 26" fill="none" xmlns="http://www.w3.org/2000/svg">
<path d="M7.17677 1.239C7.36411 0.866526 7.65126 0.553433 8.00618 0.334653C8.3611 0.115873 8.76983 1.28605e-05 9.18676 0H14.8328C15.2508 1.41225e-05 15.6606 0.116509 16.0162 0.336417C16.3718 0.556326 16.659 0.87095 16.8458 1.245L17.7233 3H20.2583C21.2528 3 22.2067 3.39509 22.9099 4.09835C23.6132 4.80161 24.0083 5.75544 24.0083 6.75V12.3915C23.155 11.6836 22.1674 11.1556 21.1049 10.8394C20.0423 10.5231 18.9267 10.425 17.8253 10.551C17.4683 9.13232 16.6055 7.89282 15.3991 7.06538C14.1927 6.23794 12.7256 5.87952 11.2736 6.05746C9.82154 6.2354 8.48444 6.93744 7.51351 8.0317C6.54257 9.12595 6.00464 10.5371 6.00077 12C6.0003 13.3395 6.44811 14.6407 7.27286 15.6963C8.09761 16.7518 9.25187 17.501 10.5518 17.8245C10.3701 19.4325 10.6653 21.0585 11.4008 22.5H3.75977C2.7652 22.5 1.81138 22.1049 1.10812 21.4017C0.404854 20.6984 0.00976562 19.7446 0.00976562 18.75V6.75C0.00976562 5.75544 0.404854 4.80161 1.10812 4.09835C1.81138 3.39509 2.7652 3 3.75977 3H6.29477L7.17677 1.239ZM12.0008 7.5C14.0903 7.5 15.8468 8.925 16.3538 10.854C15.0564 11.2491 13.8761 11.9573 12.9171 12.9163C11.9581 13.8753 11.2498 15.0556 10.8548 16.353C9.79849 16.0733 8.88001 15.4189 8.27064 14.5119C7.66126 13.6049 7.40259 12.5073 7.54286 11.4236C7.68314 10.34 8.21278 9.34433 9.03302 8.62241C9.85326 7.90048 10.9081 7.50154 12.0008 7.5ZM25.5008 18.75C25.5008 20.5402 24.7896 22.2571 23.5237 23.523C22.2579 24.7888 20.541 25.5 18.7508 25.5C16.9606 25.5 15.2437 24.7888 13.9778 23.523C12.7119 22.2571 12.0008 20.5402 12.0008 18.75C12.0008 16.9598 12.7119 15.2429 13.9778 13.977C15.2437 12.7112 16.9606 12 18.7508 12C20.541 12 22.2579 12.7112 23.5237 13.977C24.7896 15.2429 25.5008 16.9598 25.5008 18.75ZM19.5008 15.75C19.5008 15.5511 19.4217 15.3603 19.2811 15.2197C19.1404 15.079 18.9497 15 18.7508 15C18.5519 15 18.3611 15.079 18.2204 15.2197C18.0798 15.3603 18.0008 15.5511 18.0008 15.75V18H15.7508C15.5519 18 15.3611 18.079 15.2204 18.2197C15.0798 18.3603 15.0008 18.5511 15.0008 18.75C15.0008 18.9489 15.0798 19.1397 15.2204 19.2803C15.3611 19.421 15.5519 19.5 15.7508 19.5H18.0008V21.75C18.0008 21.9489 18.0798 22.1397 18.2204 22.2803C18.3611 22.421 18.5519 22.5 18.7508 22.5C18.9497 22.5 19.1404 22.421 19.2811 22.2803C19.4217 22.1397 19.5008 21.9489 19.5008 21.75V19.5H21.7508C21.9497 19.5 22.1404 19.421 22.2811 19.2803C22.4217 19.1397 22.5008 18.9489 22.5008 18.75C22.5008 18.5511 22.4217 18.3603 22.2811 18.2197C22.1404 18.079 21.9497 18 21.7508 18H19.5008V15.75Z" fill="#9D9D9D"/>
</svg>
