<svg width="30" height="30" viewBox="0 0 30 30" fill="none" xmlns="http://www.w3.org/2000/svg">
<rect width="30" height="30" rx="15" fill="#404040"/>
<path fill-rule="evenodd" clip-rule="evenodd" d="M8.8925 8.8463C9.28303 8.4653 9.91619 8.4653 10.3067 8.8463L21.5067 19.7731C21.8972 20.1541 21.8972 20.7718 21.5067 21.1528C21.1162 21.5338 20.483 21.5338 20.0925 21.1528L8.8925 10.226C8.50198 9.84502 8.50198 9.2273 8.8925 8.8463Z" fill="white"/>
<path fill-rule="evenodd" clip-rule="evenodd" d="M21.5067 8.8463C21.1162 8.4653 20.483 8.4653 20.0925 8.8463L8.8925 19.7731C8.50198 20.1541 8.50198 20.7718 8.8925 21.1528C9.28303 21.5338 9.91619 21.5338 10.3067 21.1528L21.5067 10.226C21.8972 9.84502 21.8972 9.2273 21.5067 8.8463Z" fill="white"/>
</svg>
