<svg width="20" height="20" viewBox="0 0 20 20" fill="none" xmlns="http://www.w3.org/2000/svg">
<path d="M0.832289 18.8077C-0.277431 17.698 -0.277429 15.8988 0.832291 14.7891L14.7891 0.832315C15.8988 -0.277405 17.698 -0.277406 18.8077 0.832314L19.1677 1.19229C20.2774 2.30201 20.2774 4.10122 19.1677 5.21094L5.21092 19.1677C4.1012 20.2774 2.30199 20.2774 1.19227 19.1677L0.832289 18.8077Z" fill="#F05858"/>
<path d="M18.8077 19.1677C17.698 20.2774 15.8988 20.2774 14.7891 19.1677L0.832313 5.21092C-0.277407 4.1012 -0.277408 2.30199 0.832312 1.19227L1.19229 0.832289C2.30201 -0.277431 4.10122 -0.277429 5.21094 0.832291L19.1677 14.7891C20.2774 15.8988 20.2774 17.698 19.1677 18.8077L18.8077 19.1677Z" fill="#F05858"/>
</svg>
