<svg width="85" height="85" viewBox="0 0 85 85" fill="none" xmlns="http://www.w3.org/2000/svg">
<rect x="0.5" y="0.5" width="84" height="84" rx="9.5" fill="white"/>
<rect x="0.5" y="0.5" width="84" height="84" rx="9.5" stroke="#D9D9D9"/>
<g clip-path="url(#clip0_299_7438)">
<path d="M52.5 18.25C53.163 18.25 53.7989 18.5134 54.2678 18.9822C54.7366 19.4511 55 20.087 55 20.75V38.25C55 38.913 54.7366 39.5489 54.2678 40.0178C53.7989 40.4866 53.163 40.75 52.5 40.75H32.5C31.837 40.75 31.2011 40.4866 30.7322 40.0178C30.2634 39.5489 30 38.913 30 38.25V20.75C30 20.087 30.2634 19.4511 30.7322 18.9822C31.2011 18.5134 31.837 18.25 32.5 18.25H52.5ZM52.5 20.75H32.5V38.25H33.6612L45.2963 26.615C45.4413 26.4699 45.6136 26.3547 45.8032 26.2762C45.9928 26.1976 46.196 26.1572 46.4013 26.1572C46.6065 26.1572 46.8097 26.1976 46.9993 26.2762C47.1889 26.3547 47.3612 26.4699 47.5062 26.615L52.5 31.6075V20.75ZM46.4013 29.045L37.1962 38.25H52.5V35.1437L46.4013 29.045ZM36.875 23.25C37.3723 23.25 37.8492 23.4475 38.2008 23.7992C38.5525 24.1508 38.75 24.6277 38.75 25.125C38.75 25.6223 38.5525 26.0992 38.2008 26.4508C37.8492 26.8025 37.3723 27 36.875 27C36.3777 27 35.9008 26.8025 35.5492 26.4508C35.1975 26.0992 35 25.6223 35 25.125C35 24.6277 35.1975 24.1508 35.5492 23.7992C35.9008 23.4475 36.3777 23.25 36.875 23.25Z" fill="#9D9D9D"/>
</g>
<path d="M42.1615 61.7949V62.8613H37.2123V66.6758H35.9271V62.8613H30.9916V61.7949H42.1615ZM41.0951 55.8887V56.9414H37.2259C37.3011 58.2949 39.1468 59.6143 41.4779 59.9082L41.013 60.9473C39.0443 60.6738 37.3695 59.751 36.5834 58.5C35.7836 59.7646 34.0951 60.6738 32.1263 60.9473L31.6478 59.9082C33.9789 59.6143 35.8382 58.3223 35.9271 56.9414H32.0443V55.8887H35.9271V54.4121H37.2123V55.8887H41.0951ZM52.3541 54.4121V59.293H54.2545V60.373H52.3541V66.6484H51.0553V54.4121H52.3541ZM49.1549 55.6973C49.1413 59.2383 47.5827 62.3965 43.5495 64.3926L42.8248 63.3809C45.8942 61.8496 47.5621 59.6348 47.8288 56.7773H43.4401V55.6973H49.1549Z" fill="#9D9D9D"/>
<defs>
<clipPath id="clip0_299_7438">
<rect width="30" height="30" fill="white" transform="translate(27.5 14.5)"/>
</clipPath>
</defs>
</svg>
